<svg viewBox="0 0 400 240" width="400" height="240" xmlns="http://www.w3.org/2000/svg" xmlns:xlink="http://www.w3.org/1999/xlink" shape-rendering="crispEdges">
  <defs>
    <radialGradient id="dragonGlow" cx="30%" cy="60%" r="60%">
      <stop offset="0%" stop-color="#8b0c0c" stop-opacity="0.30"/>
      <stop offset="100%" stop-color="#000000" stop-opacity="0"/>
    </radialGradient>
  </defs>
  <ellipse cx="168.0" cy="132.0" rx="180.0" ry="96.0" fill="url(#dragonGlow)"/>

  <g id="wingUp"><rect x="80" y="10" width="80" height="10" fill="#2e2e33"/><rect x="60" y="20" width="20" height="10" fill="#2e2e33"/><rect x="80" y="20" width="80" height="10" fill="#45454d"/><rect x="160" y="20" width="20" height="10" fill="#2e2e33"/><rect x="40" y="30" width="20" height="10" fill="#2e2e33"/><rect x="60" y="30" width="120" height="10" fill="#45454d"/><rect x="180" y="30" width="20" height="10" fill="#2e2e33"/><rect x="20" y="40" width="20" height="10" fill="#2e2e33"/><rect x="40" y="40" width="160" height="10" fill="#45454d"/><rect x="200" y="40" width="10" height="10" fill="#2e2e33"/><rect x="20" y="50" width="10" height="10" fill="#2e2e33"/><rect x="30" y="50" width="170" height="10" fill="#45454d"/><rect x="30" y="60" width="10" height="10" fill="#2e2e33"/><rect x="40" y="60" width="130" height="10" fill="#45454d"/><rect x="170" y="60" width="10" height="10" fill="#2e2e33"/><rect x="40" y="70" width="10" height="10" fill="#2e2e33"/><rect x="50" y="70" width="90" height="10" fill="#45454d"/><rect x="140" y="70" width="10" height="10" fill="#2e2e33"/><rect x="50" y="80" width="10" height="10" fill="#2e2e33"/><rect x="60" y="80" width="50" height="10" fill="#45454d"/><rect x="110" y="80" width="10" height="10" fill="#2e2e33"/><rect x="60" y="90" width="40" height="10" fill="#2e2e33"/></g>
  <g id="wingDown"><rect x="80" y="50" width="40" height="10" fill="#2e2e33"/><rect x="60" y="60" width="20" height="10" fill="#2e2e33"/><rect x="80" y="60" width="40" height="10" fill="#45454d"/><rect x="120" y="60" width="20" height="10" fill="#2e2e33"/><rect x="40" y="70" width="20" height="10" fill="#2e2e33"/><rect x="60" y="70" width="80" height="10" fill="#45454d"/><rect x="140" y="70" width="20" height="10" fill="#2e2e33"/><rect x="30" y="80" width="10" height="10" fill="#2e2e33"/><rect x="40" y="80" width="130" height="10" fill="#45454d"/><rect x="20" y="90" width="10" height="10" fill="#2e2e33"/><rect x="30" y="90" width="170" height="10" fill="#45454d"/><rect x="30" y="100" width="10" height="10" fill="#2e2e33"/><rect x="40" y="100" width="200" height="10" fill="#45454d"/><rect x="240" y="100" width="10" height="10" fill="#2e2e33"/><rect x="40" y="110" width="10" height="10" fill="#2e2e33"/><rect x="50" y="110" width="210" height="10" fill="#45454d"/><rect x="260" y="110" width="20" height="10" fill="#2e2e33"/></g>
  <animate xlink:href="#wingUp" attributeName="opacity" values="1;1;0;0;1" keyTimes="0;0.45;0.5;0.95;1" dur="1.1s" repeatCount="indefinite"/>
  <animate xlink:href="#wingDown" attributeName="opacity" values="0;0;1;1;0" keyTimes="0;0.45;0.5;0.95;1" dur="1.1s" repeatCount="indefinite"/>

  <g id="dragonBody"><rect x="100" y="70" width="20" height="10" fill="#c9a227"/><rect x="90" y="80" width="40" height="10" fill="#0b0b0d"/><rect x="80" y="90" width="10" height="10" fill="#0b0b0d"/><rect x="90" y="90" width="40" height="10" fill="#5a1616"/><rect x="130" y="90" width="10" height="10" fill="#0b0b0d"/><rect x="70" y="100" width="10" height="10" fill="#0b0b0d"/><rect x="80" y="100" width="60" height="10" fill="#5a1616"/><rect x="140" y="100" width="10" height="10" fill="#0b0b0d"/><rect x="60" y="110" width="10" height="10" fill="#0b0b0d"/><rect x="70" y="110" width="20" height="10" fill="#5a1616"/><rect x="90" y="110" width="30" height="10" fill="#7a1f1f"/><rect x="120" y="110" width="20" height="10" fill="#5a1616"/><rect x="140" y="110" width="10" height="10" fill="#0b0b0d"/><rect x="50" y="120" width="10" height="10" fill="#0b0b0d"/><rect x="60" y="120" width="20" height="10" fill="#5a1616"/><rect x="80" y="120" width="50" height="10" fill="#7a1f1f"/><rect x="130" y="120" width="10" height="10" fill="#5a1616"/><rect x="140" y="120" width="20" height="10" fill="#0b0b0d"/><rect x="40" y="130" width="10" height="10" fill="#0b0b0d"/><rect x="50" y="130" width="20" height="10" fill="#5a1616"/><rect x="70" y="130" width="70" height="10" fill="#7a1f1f"/><rect x="140" y="130" width="20" height="10" fill="#5a1616"/><rect x="160" y="130" width="20" height="10" fill="#0b0b0d"/><rect x="30" y="140" width="10" height="10" fill="#0b0b0d"/><rect x="40" y="140" width="20" height="10" fill="#5a1616"/><rect x="60" y="140" width="40" height="10" fill="#7a1f1f"/><rect x="100" y="140" width="20" height="10" fill="#8b0c0c"/><rect x="120" y="140" width="30" height="10" fill="#7a1f1f"/><rect x="150" y="140" width="30" height="10" fill="#5a1616"/><rect x="180" y="140" width="30" height="10" fill="#0b0b0d"/><rect x="20" y="150" width="10" height="10" fill="#0b0b0d"/><rect x="30" y="150" width="20" height="10" fill="#5a1616"/><rect x="50" y="150" width="50" height="10" fill="#7a1f1f"/><rect x="100" y="150" width="20" height="10" fill="#8b0c0c"/><rect x="120" y="150" width="40" height="10" fill="#7a1f1f"/><rect x="160" y="150" width="40" height="10" fill="#5a1616"/><rect x="200" y="150" width="20" height="10" fill="#0b0b0d"/><rect x="20" y="160" width="10" height="10" fill="#0b0b0d"/><rect x="30" y="160" width="20" height="10" fill="#5a1616"/><rect x="50" y="160" width="100" height="10" fill="#7a1f1f"/><rect x="150" y="160" width="60" height="10" fill="#5a1616"/><rect x="210" y="160" width="20" height="10" fill="#0b0b0d"/><rect x="30" y="170" width="10" height="10" fill="#0b0b0d"/><rect x="40" y="170" width="30" height="10" fill="#5a1616"/><rect x="70" y="170" width="60" height="10" fill="#7a1f1f"/><rect x="130" y="170" width="100" height="10" fill="#5a1616"/><rect x="230" y="170" width="20" height="10" fill="#0b0b0d"/><rect x="40" y="180" width="10" height="10" fill="#0b0b0d"/><rect x="50" y="180" width="200" height="10" fill="#5a1616"/><rect x="250" y="180" width="20" height="10" fill="#0b0b0d"/><rect x="50" y="190" width="10" height="10" fill="#0b0b0d"/><rect x="60" y="190" width="210" height="10" fill="#5a1616"/><rect x="270" y="190" width="20" height="10" fill="#0b0b0d"/><rect x="60" y="200" width="20" height="10" fill="#0b0b0d"/><rect x="80" y="200" width="210" height="10" fill="#5a1616"/><rect x="290" y="200" width="20" height="10" fill="#0b0b0d"/><rect x="80" y="210" width="20" height="10" fill="#0b0b0d"/><rect x="110" y="210" width="20" height="10" fill="#0b0b0d"/><rect x="170" y="210" width="20" height="10" fill="#0b0b0d"/><rect x="200" y="210" width="20" height="10" fill="#0b0b0d"/><rect x="270" y="210" width="10" height="10" fill="#0b0b0d"/><rect x="280" y="210" width="20" height="10" fill="#5a1616"/><rect x="300" y="210" width="10" height="10" fill="#0b0b0d"/><rect x="90" y="220" width="10" height="10" fill="#0b0b0d"/><rect x="130" y="220" width="10" height="10" fill="#0b0b0d"/><rect x="160" y="220" width="10" height="10" fill="#0b0b0d"/><rect x="200" y="220" width="10" height="10" fill="#0b0b0d"/><rect x="290" y="220" width="20" height="10" fill="#0b0b0d"/></g>

  <g id="fireBreath"><rect x="0" y="130" width="10" height="10" fill="#ffcf4d"/><rect x="-10" y="130" width="10" height="10" fill="#ffcf4d"/><rect x="0" y="140" width="10" height="10" fill="#ff7a1a"/><rect x="-10" y="140" width="10" height="10" fill="#ffcf4d"/><rect x="-20" y="140" width="10" height="10" fill="#ff7a1a"/><rect x="10" y="150" width="10" height="10" fill="#c9a227"/><rect x="0" y="150" width="10" height="10" fill="#ff7a1a"/><rect x="-10" y="150" width="10" height="10" fill="#ffcf4d"/><rect x="-20" y="150" width="10" height="10" fill="#ff7a1a"/><rect x="-30" y="150" width="10" height="10" fill="#c9a227"/><rect x="20" y="160" width="10" height="10" fill="#c9a227"/><rect x="10" y="160" width="10" height="10" fill="#ff7a1a"/><rect x="0" y="160" width="10" height="10" fill="#ffcf4d"/><rect x="-10" y="160" width="10" height="10" fill="#ff7a1a"/><rect x="-20" y="160" width="10" height="10" fill="#c9a227"/><rect x="-30" y="160" width="10" height="10" fill="#c9a227"/><rect x="30" y="170" width="10" height="10" fill="#c9a227"/><rect x="20" y="170" width="10" height="10" fill="#ff7a1a"/><rect x="10" y="170" width="10" height="10" fill="#ffcf4d"/><rect x="0" y="170" width="10" height="10" fill="#ff7a1a"/><rect x="-10" y="170" width="10" height="10" fill="#c9a227"/></g>
  <animate xlink:href="#fireBreath" attributeName="opacity" values="0;1;1;0.6;1;0" keyTimes="0;0.15;0.4;0.55;0.8;1" dur="0.8s" repeatCount="indefinite"/>
</svg>