<svg viewBox="0 0 224 322" width="224" height="322" xmlns="http://www.w3.org/2000/svg" xmlns:xlink="http://www.w3.org/1999/xlink" shape-rendering="crispEdges">
  <defs>
    <radialGradient id="groundGlow" cx="50%" cy="100%" r="70%">
      <stop offset="0%" stop-color="#c9a227" stop-opacity="0.25"/>
      <stop offset="100%" stop-color="#000000" stop-opacity="0"/>
    </radialGradient>
  </defs>
  <ellipse cx="112.0" cy="316" rx="94.08" ry="10" fill="url(#groundGlow)"/>
  <g id="knightA"><rect x="84" y="14" width="28" height="14" fill="#8b0c0c"/><rect x="70" y="28" width="56" height="14" fill="#8b0c0c"/><rect x="56" y="42" width="84" height="14" fill="#0b0b0d"/><rect x="196" y="42" width="14" height="14" fill="#eaeaea"/><rect x="56" y="56" width="14" height="14" fill="#0b0b0d"/><rect x="70" y="56" width="56" height="14" fill="#4a4e57"/><rect x="126" y="56" width="14" height="14" fill="#0b0b0d"/><rect x="182" y="56" width="28" height="14" fill="#eaeaea"/><rect x="56" y="70" width="14" height="14" fill="#0b0b0d"/><rect x="70" y="70" width="14" height="14" fill="#4a4e57"/><rect x="84" y="70" width="28" height="14" fill="#d9a066"/><rect x="112" y="70" width="14" height="14" fill="#4a4e57"/><rect x="126" y="70" width="14" height="14" fill="#0b0b0d"/><rect x="168" y="70" width="28" height="14" fill="#eaeaea"/><rect x="56" y="84" width="14" height="14" fill="#0b0b0d"/><rect x="70" y="84" width="14" height="14" fill="#4a4e57"/><rect x="84" y="84" width="28" height="14" fill="#d9a066"/><rect x="112" y="84" width="14" height="14" fill="#4a4e57"/><rect x="126" y="84" width="14" height="14" fill="#0b0b0d"/><rect x="154" y="84" width="28" height="14" fill="#eaeaea"/><rect x="56" y="98" width="28" height="14" fill="#0b0b0d"/><rect x="84" y="98" width="28" height="14" fill="#4a4e57"/><rect x="112" y="98" width="28" height="14" fill="#0b0b0d"/><rect x="154" y="98" width="14" height="14" fill="#c9a227"/><rect x="42" y="112" width="14" height="14" fill="#0b0b0d"/><rect x="56" y="112" width="84" height="14" fill="#4a4e57"/><rect x="140" y="112" width="14" height="14" fill="#0b0b0d"/><rect x="28" y="126" width="14" height="14" fill="#7a531f"/><rect x="42" y="126" width="14" height="14" fill="#0b0b0d"/><rect x="56" y="126" width="84" height="14" fill="#4a4e57"/><rect x="140" y="126" width="14" height="14" fill="#0b0b0d"/><rect x="14" y="140" width="14" height="14" fill="#4b2e1a"/><rect x="28" y="140" width="14" height="14" fill="#7a531f"/><rect x="42" y="140" width="14" height="14" fill="#0b0b0d"/><rect x="56" y="140" width="84" height="14" fill="#4a4e57"/><rect x="140" y="140" width="14" height="14" fill="#0b0b0d"/><rect x="14" y="154" width="14" height="14" fill="#4b2e1a"/><rect x="28" y="154" width="14" height="14" fill="#7a531f"/><rect x="42" y="154" width="14" height="14" fill="#0b0b0d"/><rect x="56" y="154" width="28" height="14" fill="#4a4e57"/><rect x="84" y="154" width="28" height="14" fill="#9aa0aa"/><rect x="112" y="154" width="28" height="14" fill="#4a4e57"/><rect x="140" y="154" width="14" height="14" fill="#0b0b0d"/><rect x="28" y="168" width="14" height="14" fill="#7a531f"/><rect x="42" y="168" width="14" height="14" fill="#0b0b0d"/><rect x="56" y="168" width="28" height="14" fill="#4a4e57"/><rect x="84" y="168" width="28" height="14" fill="#9aa0aa"/><rect x="112" y="168" width="28" height="14" fill="#4a4e57"/><rect x="140" y="168" width="14" height="14" fill="#0b0b0d"/><rect x="42" y="182" width="14" height="14" fill="#0b0b0d"/><rect x="56" y="182" width="84" height="14" fill="#4a4e57"/><rect x="140" y="182" width="14" height="14" fill="#0b0b0d"/><rect x="56" y="196" width="14" height="14" fill="#0b0b0d"/><rect x="70" y="196" width="14" height="14" fill="#4a4e57"/><rect x="84" y="196" width="28" height="14" fill="#c9a227"/><rect x="112" y="196" width="14" height="14" fill="#4a4e57"/><rect x="126" y="196" width="14" height="14" fill="#0b0b0d"/><rect x="56" y="210" width="14" height="14" fill="#0b0b0d"/><rect x="70" y="210" width="14" height="14" fill="#4a4e57"/><rect x="112" y="210" width="14" height="14" fill="#4a4e57"/><rect x="126" y="210" width="14" height="14" fill="#0b0b0d"/><rect x="56" y="224" width="28" height="14" fill="#4a4e57"/><rect x="112" y="224" width="28" height="14" fill="#4a4e57"/><rect x="56" y="238" width="28" height="14" fill="#4a4e57"/><rect x="112" y="238" width="28" height="14" fill="#4a4e57"/><rect x="56" y="252" width="28" height="14" fill="#4a4e57"/><rect x="112" y="252" width="28" height="14" fill="#4a4e57"/><rect x="56" y="266" width="28" height="14" fill="#9aa0aa"/><rect x="112" y="266" width="28" height="14" fill="#9aa0aa"/><rect x="56" y="280" width="28" height="14" fill="#0b0b0d"/><rect x="112" y="280" width="28" height="14" fill="#0b0b0d"/></g>
  <g id="knightB"><rect x="84" y="14" width="28" height="14" fill="#8b0c0c"/><rect x="70" y="28" width="56" height="14" fill="#8b0c0c"/><rect x="56" y="42" width="84" height="14" fill="#0b0b0d"/><rect x="56" y="56" width="14" height="14" fill="#0b0b0d"/><rect x="70" y="56" width="56" height="14" fill="#4a4e57"/><rect x="126" y="56" width="14" height="14" fill="#0b0b0d"/><rect x="196" y="56" width="14" height="14" fill="#eaeaea"/><rect x="56" y="70" width="14" height="14" fill="#0b0b0d"/><rect x="70" y="70" width="14" height="14" fill="#4a4e57"/><rect x="84" y="70" width="28" height="14" fill="#d9a066"/><rect x="112" y="70" width="14" height="14" fill="#4a4e57"/><rect x="126" y="70" width="14" height="14" fill="#0b0b0d"/><rect x="182" y="70" width="28" height="14" fill="#eaeaea"/><rect x="56" y="84" width="14" height="14" fill="#0b0b0d"/><rect x="70" y="84" width="14" height="14" fill="#4a4e57"/><rect x="84" y="84" width="28" height="14" fill="#d9a066"/><rect x="112" y="84" width="14" height="14" fill="#4a4e57"/><rect x="126" y="84" width="14" height="14" fill="#0b0b0d"/><rect x="168" y="84" width="28" height="14" fill="#eaeaea"/><rect x="56" y="98" width="28" height="14" fill="#0b0b0d"/><rect x="84" y="98" width="28" height="14" fill="#4a4e57"/><rect x="112" y="98" width="28" height="14" fill="#0b0b0d"/><rect x="154" y="98" width="14" height="14" fill="#c9a227"/><rect x="42" y="112" width="14" height="14" fill="#0b0b0d"/><rect x="56" y="112" width="84" height="14" fill="#4a4e57"/><rect x="140" y="112" width="14" height="14" fill="#0b0b0d"/><rect x="28" y="126" width="14" height="14" fill="#7a531f"/><rect x="42" y="126" width="14" height="14" fill="#0b0b0d"/><rect x="56" y="126" width="84" height="14" fill="#4a4e57"/><rect x="140" y="126" width="14" height="14" fill="#0b0b0d"/><rect x="14" y="140" width="14" height="14" fill="#4b2e1a"/><rect x="28" y="140" width="14" height="14" fill="#7a531f"/><rect x="42" y="140" width="14" height="14" fill="#0b0b0d"/><rect x="56" y="140" width="84" height="14" fill="#4a4e57"/><rect x="140" y="140" width="14" height="14" fill="#0b0b0d"/><rect x="14" y="154" width="14" height="14" fill="#4b2e1a"/><rect x="28" y="154" width="14" height="14" fill="#7a531f"/><rect x="42" y="154" width="14" height="14" fill="#0b0b0d"/><rect x="56" y="154" width="28" height="14" fill="#4a4e57"/><rect x="84" y="154" width="28" height="14" fill="#9aa0aa"/><rect x="112" y="154" width="28" height="14" fill="#4a4e57"/><rect x="140" y="154" width="14" height="14" fill="#0b0b0d"/><rect x="28" y="168" width="14" height="14" fill="#7a531f"/><rect x="42" y="168" width="14" height="14" fill="#0b0b0d"/><rect x="56" y="168" width="28" height="14" fill="#4a4e57"/><rect x="84" y="168" width="28" height="14" fill="#9aa0aa"/><rect x="112" y="168" width="28" height="14" fill="#4a4e57"/><rect x="140" y="168" width="14" height="14" fill="#0b0b0d"/><rect x="42" y="182" width="14" height="14" fill="#0b0b0d"/><rect x="56" y="182" width="84" height="14" fill="#4a4e57"/><rect x="140" y="182" width="14" height="14" fill="#0b0b0d"/><rect x="56" y="196" width="14" height="14" fill="#0b0b0d"/><rect x="70" y="196" width="14" height="14" fill="#4a4e57"/><rect x="84" y="196" width="28" height="14" fill="#c9a227"/><rect x="112" y="196" width="14" height="14" fill="#4a4e57"/><rect x="126" y="196" width="14" height="14" fill="#0b0b0d"/><rect x="56" y="210" width="14" height="14" fill="#4a4e57"/><rect x="70" y="210" width="14" height="14" fill="#0b0b0d"/><rect x="112" y="210" width="14" height="14" fill="#0b0b0d"/><rect x="126" y="210" width="14" height="14" fill="#4a4e57"/><rect x="42" y="224" width="28" height="14" fill="#4a4e57"/><rect x="126" y="224" width="28" height="14" fill="#4a4e57"/><rect x="42" y="238" width="28" height="14" fill="#4a4e57"/><rect x="126" y="238" width="28" height="14" fill="#4a4e57"/><rect x="42" y="252" width="28" height="14" fill="#4a4e57"/><rect x="126" y="252" width="28" height="14" fill="#4a4e57"/><rect x="42" y="266" width="28" height="14" fill="#9aa0aa"/><rect x="126" y="266" width="28" height="14" fill="#9aa0aa"/><rect x="42" y="280" width="28" height="14" fill="#0b0b0d"/><rect x="126" y="280" width="28" height="14" fill="#0b0b0d"/></g>
  <animate xlink:href="#knightA" attributeName="opacity" values="1;1;0;0;1" keyTimes="0;0.24;0.25;0.74;0.75" dur="1s" repeatCount="indefinite"/>
  <animate xlink:href="#knightB" attributeName="opacity" values="0;0;1;1;0" keyTimes="0;0.24;0.25;0.74;0.75" dur="1s" repeatCount="indefinite"/>
</svg>